<svg id="Layer_1" data-name="Layer 1" xmlns="http://www.w3.org/2000/svg" xmlns:xlink="http://www.w3.org/1999/xlink" viewBox="0 0 32 32"><defs><style>.cls-1{fill:#fff;}.cls-2{fill:url(#linear-gradient);}</style><linearGradient id="linear-gradient" x1="0.28" y1="16" x2="31.72" y2="16" gradientUnits="userSpaceOnUse"><stop offset="0" stop-color="#ff5e00"/><stop offset="1" stop-color="#87ceeb"/></linearGradient></defs><path class="cls-1" d="M31.51,25a3.76,3.76,0,0,0-.31-.68L25.27,14,19.33,3.73a3.85,3.85,0,0,0-6.67,0L6.72,14,.78,24.29a3.9,3.9,0,0,0,1.54,5.34,3.11,3.11,0,0,0,1.54.43C4.5,30,5,29.4,5.49,29a23.19,23.19,0,0,1,3.87-2.64,14.74,14.74,0,0,1,5.39-1.56,18.58,18.58,0,0,0-1.6-3.22,2.75,2.75,0,0,1-.39-.76,3.77,3.77,0,0,1-.13-.72,3.12,3.12,0,0,1,.06-.73,1.66,1.66,0,0,1,.1-.29c0-.06-.06-.11-.1,0h0a.06.06,0,0,1-.1,0,2,2,0,0,1-.09-.22c0-.07-.06-.17-.1-.3a2.86,2.86,0,0,1-.12-.69,1.36,1.36,0,0,1,0-.35.06.06,0,0,0-.11,0l0,.06a.06.06,0,0,1-.1,0L12,17.44a1.75,1.75,0,0,1-.27-.72.64.64,0,0,0,0,.12.05.05,0,0,1-.09,0,6.41,6.41,0,0,1-.76-1,4.39,4.39,0,0,1-.37-1.67c-.09-.29-.35-.49,0-.69a9.89,9.89,0,0,0,1.39-1.36A16.37,16.37,0,0,1,14,10.52a1.44,1.44,0,0,1,.95-.42,3.29,3.29,0,0,0,1.17-.25c.31-.13.46.31.69.63s.26.62.09.69a3.71,3.71,0,0,1-.57.18.1.1,0,0,0,0,.05.32.32,0,0,1-.29.3c-.3.05-.6-.33-.81-.4a1.76,1.76,0,0,0-1.36,1.33,2.21,2.21,0,0,1-1,1.26.06.06,0,0,0,0,.11,2.56,2.56,0,0,1,1.24.67,0,0,0,0,1,0,.09,1.79,1.79,0,0,0-.48.24c-.06,0,0,.13.07.09a1.81,1.81,0,0,1,.64-.22,2.32,2.32,0,0,1,.88,0l.08,0,.09,0,.1,0,.13,0h0a2.91,2.91,0,0,1,1.1.84,0,0,0,0,1,0,.07.83.83,0,0,1-.22.2.06.06,0,0,0,.05.1.91.91,0,0,0,.41-.3h0l0,0,0,0v0l0,0a.54.54,0,0,0,.07-.2c.14-.63-.29-1.57-.23-2.13a2.26,2.26,0,0,1,2.35-1.7,2.93,2.93,0,0,1,2.47,1.42c0,.15-.25.53-.31.6s0,0,0,0l-.05.8a.21.21,0,0,1,0,.13L21,15a.27.27,0,0,0-.06.24,5.11,5.11,0,0,1,.18.89c0,.08-.16.11-.31.11s-.12.29-.1.36a.09.09,0,0,1-.08.11.06.06,0,0,0,0,.07c0,.05,0,.12-.05.14-.27.07-.14.25-.4.48s-.62-.1-.72-.2,0,0-.06,0c-5.53,2.11-5,6.18-4.6,7.58l.75-.05a6,6,0,0,1,1.06-4.95,3.59,3.59,0,0,1,2-1.17A4.27,4.27,0,0,0,16.5,20.3a7.94,7.94,0,0,0-1,4.44,15.33,15.33,0,0,1,3.58.3,14.59,14.59,0,0,1,4.63,1.87,12.87,12.87,0,0,1,1.94,1.5A10.21,10.21,0,0,0,27.42,30c1.15.58,2.82-.59,3.49-1.45A3.86,3.86,0,0,0,31.51,25ZM1.94,24.52A3,3,0,0,0,1.54,26c0,1.43,1.06,2.87,2.62,2.46A2.39,2.39,0,0,0,4.94,28c.24-.19.51-.38.76-.55a18.51,18.51,0,0,1,7.43-3.16l-.61.14c-.4.1-.81.21-1.2.33A19.74,19.74,0,0,0,5.8,27.56c-.34.24-.67.51-1,.75a2.07,2.07,0,0,1-2.45-.07,2.9,2.9,0,0,1-1-1.65,3.1,3.1,0,0,1,.21-1.9c.17-.38.71-1.27.92-1.65C6.19,16.63,10.06,10,13.84,3.62,10,10.55,5.9,17.66,1.94,24.52Zm28.57,2.07a2.92,2.92,0,0,1-1,1.65,2.07,2.07,0,0,1-2.45.07c-.33-.24-.66-.51-1-.75a19.79,19.79,0,0,0-5.53-2.82c-.39-.12-.8-.23-1.2-.33l-.61-.14a18.49,18.49,0,0,1,7.44,3.16L27,28a2.29,2.29,0,0,0,.78.43c1.56.41,2.63-1,2.61-2.46A3,3,0,0,0,30,24.52c-4-6.86-8-14-11.91-20.9C21.83,10,25.7,16.63,29.38,23c.21.38.75,1.27.92,1.65A3.1,3.1,0,0,1,30.51,26.59Z"/><path class="cls-2" d="M31.51,25a3.76,3.76,0,0,0-.31-.68L25.27,14,19.33,3.73a3.85,3.85,0,0,0-6.67,0L6.72,14,.78,24.29a3.9,3.9,0,0,0,1.54,5.34,3.11,3.11,0,0,0,1.54.43C4.5,30,5,29.4,5.49,29a23.19,23.19,0,0,1,3.87-2.64,14.74,14.74,0,0,1,5.39-1.56,18.58,18.58,0,0,0-1.6-3.22,2.75,2.75,0,0,1-.39-.76,3.77,3.77,0,0,1-.13-.72,3.12,3.12,0,0,1,.06-.73,1.66,1.66,0,0,1,.1-.29c0-.06-.06-.11-.1,0h0a.06.06,0,0,1-.1,0,2,2,0,0,1-.09-.22c0-.07-.06-.17-.1-.3a2.86,2.86,0,0,1-.12-.69,1.36,1.36,0,0,1,0-.35.06.06,0,0,0-.11,0l0,.06a.06.06,0,0,1-.1,0L12,17.44a1.75,1.75,0,0,1-.27-.72.64.64,0,0,0,0,.12.05.05,0,0,1-.09,0,6.41,6.41,0,0,1-.76-1,4.39,4.39,0,0,1-.37-1.67c-.09-.29-.35-.49,0-.69a9.89,9.89,0,0,0,1.39-1.36A16.37,16.37,0,0,1,14,10.52a1.44,1.44,0,0,1,.95-.42,3.29,3.29,0,0,0,1.17-.25c.31-.13.46.31.69.63s.26.62.09.69a3.71,3.71,0,0,1-.57.18.1.1,0,0,0,0,.05.32.32,0,0,1-.29.3c-.3.05-.6-.33-.81-.4a1.76,1.76,0,0,0-1.36,1.33,2.21,2.21,0,0,1-1,1.26.06.06,0,0,0,0,.11,2.56,2.56,0,0,1,1.24.67,0,0,0,0,1,0,.09,1.79,1.79,0,0,0-.48.24c-.06,0,0,.13.07.09a1.81,1.81,0,0,1,.64-.22,2.32,2.32,0,0,1,.88,0l.08,0,.09,0,.1,0,.13,0h0a2.91,2.91,0,0,1,1.1.84,0,0,0,0,1,0,.07.83.83,0,0,1-.22.2.06.06,0,0,0,.05.1.91.91,0,0,0,.41-.3h0l0,0,0,0v0l0,0a.54.54,0,0,0,.07-.2c.14-.63-.29-1.57-.23-2.13a2.26,2.26,0,0,1,2.35-1.7,2.93,2.93,0,0,1,2.47,1.42c0,.15-.25.53-.31.6s0,0,0,0l-.05.8a.21.21,0,0,1,0,.13L21,15a.27.27,0,0,0-.06.24,5.11,5.11,0,0,1,.18.89c0,.08-.16.11-.31.11s-.12.29-.1.36a.09.09,0,0,1-.08.11.06.06,0,0,0,0,.07c0,.05,0,.12-.05.14-.27.07-.14.25-.4.48s-.62-.1-.72-.2,0,0-.06,0c-5.53,2.11-5,6.18-4.6,7.58l.75-.05a6,6,0,0,1,1.06-4.95,3.59,3.59,0,0,1,2-1.17A4.27,4.27,0,0,0,16.5,20.3a7.94,7.94,0,0,0-1,4.44,15.33,15.33,0,0,1,3.58.3,14.59,14.59,0,0,1,4.63,1.87,12.87,12.87,0,0,1,1.94,1.5A10.21,10.21,0,0,0,27.42,30c1.15.58,2.82-.59,3.49-1.45A3.86,3.86,0,0,0,31.51,25ZM1.94,24.52A3,3,0,0,0,1.54,26c0,1.43,1.06,2.87,2.62,2.46A2.39,2.39,0,0,0,4.94,28c.24-.19.51-.38.76-.55a18.51,18.51,0,0,1,7.43-3.16l-.61.14c-.4.1-.81.21-1.2.33A19.74,19.74,0,0,0,5.8,27.56c-.34.24-.67.51-1,.75a2.07,2.07,0,0,1-2.45-.07,2.9,2.9,0,0,1-1-1.65,3.1,3.1,0,0,1,.21-1.9c.17-.38.71-1.27.92-1.65C6.19,16.63,10.06,10,13.84,3.62,10,10.55,5.9,17.66,1.94,24.52Zm28.57,2.07a2.92,2.92,0,0,1-1,1.65,2.07,2.07,0,0,1-2.45.07c-.33-.24-.66-.51-1-.75a19.79,19.79,0,0,0-5.53-2.82c-.39-.12-.8-.23-1.2-.33l-.61-.14a18.49,18.49,0,0,1,7.44,3.16L27,28a2.29,2.29,0,0,0,.78.43c1.56.41,2.63-1,2.61-2.46A3,3,0,0,0,30,24.52c-4-6.86-8-14-11.91-20.9C21.83,10,25.7,16.63,29.38,23c.21.38.75,1.27.92,1.65A3.1,3.1,0,0,1,30.51,26.59Z"/></svg>